<svg width="19" height="15" viewBox="0 0 19 15" fill="none" xmlns="http://www.w3.org/2000/svg">
<path d="M15.8397 0H2.26282C1.66288 0.000639225 1.08769 0.238306 0.663473 0.660851C0.239251 1.0834 0.000641762 1.65631 0 2.25387V11.9133C0.000641762 12.5109 0.239251 13.0838 0.663473 13.5064C1.08769 13.9289 1.66288 14.1666 2.26282 14.1672H15.8397C16.4397 14.1666 17.0149 13.9289 17.4391 13.5064C17.8633 13.0838 18.1019 12.5109 18.1025 11.9133V2.25387C18.1019 1.65631 17.8633 1.0834 17.4391 0.660851C17.0149 0.238306 16.4397 0.000639225 15.8397 0ZM15.2668 3.72815L9.44808 8.2359C9.33461 8.32376 9.19499 8.37145 9.05127 8.37145C8.90756 8.37145 8.76794 8.32376 8.65447 8.2359L2.8358 3.72815C2.76743 3.67673 2.71001 3.61228 2.66687 3.53857C2.62372 3.46485 2.59572 3.38332 2.58448 3.29873C2.57324 3.21414 2.579 3.12817 2.60141 3.04581C2.62382 2.96345 2.66243 2.88635 2.71502 2.81899C2.7676 2.75162 2.8331 2.69534 2.90771 2.65341C2.98232 2.61148 3.06456 2.58473 3.14963 2.57473C3.23471 2.56473 3.32094 2.57167 3.4033 2.59515C3.48566 2.61863 3.56252 2.65817 3.6294 2.71149L9.05127 6.91175L14.4731 2.71149C14.6087 2.60951 14.7792 2.56479 14.9476 2.58698C15.116 2.60918 15.2689 2.69652 15.3732 2.83011C15.4774 2.9637 15.5247 3.13281 15.5048 3.30086C15.4849 3.46892 15.3994 3.62241 15.2668 3.72815Z" fill="white" fill-opacity="0.64"/>
</svg>
