<svg width="39" height="42" viewBox="0 0 39 42" fill="none" xmlns="http://www.w3.org/2000/svg">
<path d="M19.5 23.6785C25.6541 23.6785 30.6429 18.6897 30.6429 12.5357C30.6429 6.38165 25.6541 1.39282 19.5 1.39282C13.346 1.39282 8.35718 6.38165 8.35718 12.5357C8.35718 18.6897 13.346 23.6785 19.5 23.6785Z" stroke="white" stroke-width="2.78571" stroke-linecap="round" stroke-linejoin="round"/>
<path d="M9.71949 18.4397L1.39282 33.4286L8.95429 33.392C9.19656 33.3908 9.43496 33.4528 9.64595 33.5719C9.85694 33.6909 10.0332 33.863 10.1574 34.071L13.9285 40.3929L21.618 23.4766" stroke="white" stroke-width="2.78571" stroke-linecap="round" stroke-linejoin="round"/>
<path d="M29.1229 18.1071L37.6071 33.4285L30.0457 33.3919C29.8034 33.3907 29.565 33.4527 29.354 33.5718C29.143 33.6908 28.9667 33.8629 28.8426 34.0709L25.0714 40.3928L19.5 28.1356" stroke="white" stroke-width="2.78571" stroke-linecap="round" stroke-linejoin="round"/>
<path d="M19.4999 18.1071C22.5769 18.1071 25.0713 15.6127 25.0713 12.5357C25.0713 9.45865 22.5769 6.96423 19.4999 6.96423C16.4229 6.96423 13.9285 9.45865 13.9285 12.5357C13.9285 15.6127 16.4229 18.1071 19.4999 18.1071Z" stroke="white" stroke-width="2.78571" stroke-linecap="round" stroke-linejoin="round"/>
</svg>
