<svg width="61" height="33" viewBox="0 0 61 33" fill="none" xmlns="http://www.w3.org/2000/svg">
<path d="M1.5 23H10.5M4.5 15H17.5M8.5 7.5H25M15 1.5H46.5L45.4818 8.5M42.5 29H11M42.5 29H58.5C58.5 29 59 21 59 20.5C59 20 58 18.5 57.5 18.5C57 18.5 55 18.5 55 18.5M42.5 29L45.4818 8.5M48 18.5H55M55 18.5C55 18.5 55.5 12.5 55.5 11C55.5 9.5 55.936 8.5 53 8.5C50.064 8.5 48.4179 8.5 45.4818 8.5" stroke="white" stroke-width="3" stroke-linecap="round" stroke-linejoin="round"/>
<circle cx="24" cy="28.5" r="3" fill="white" stroke="white" stroke-width="3"/>
<circle cx="51" cy="28.5" r="3" fill="white" stroke="white" stroke-width="3"/>
</svg>
